<svg viewBox="0 0 20 32">
  <path d="M8.014 22.505c-2.475-.259-4.707-.869-6.617-2.364-.237-.186-.482-.365-.699-.573-.836-.804-.92-1.725-.258-2.673.566-.812 1.516-1.03 2.504-.563.191.09.373.203.548.324 3.56 2.449 8.452 2.516 12.026.11.354-.271.732-.493 1.17-.606.854-.22 1.65.094 2.107.841.523.853.516 1.686-.128 2.348-.988 1.015-2.177 1.75-3.498 2.262-1.249.485-2.617.729-3.97.89.204.223.3.333.428.461 1.838 1.849 3.685 3.69 5.517 5.543.624.632.755 1.416.41 2.15-.375.803-1.216 1.332-2.041 1.275-.523-.036-.93-.296-1.292-.661-1.388-1.397-2.801-2.769-4.16-4.192-.396-.414-.586-.336-.935.024a278.388 278.388 0 0 1-4.24 4.261c-.641.632-1.404.746-2.147.385-.79-.383-1.292-1.19-1.253-2 .027-.55.296-.968.672-1.344 1.82-1.818 3.634-3.64 5.449-5.462.12-.12.232-.25.407-.436z" fill="#fff" />
  <path d="M9.522 16.172c-4.415-.015-8.036-3.678-8.01-8.104C1.537 3.594 5.16-.012 9.619 0c4.467.012 8.053 3.67 8.031 8.19-.023 4.418-3.668 7.997-8.128 7.982zm4.012-8.093a3.937 3.937 0 0 0-3.947-3.95 3.943 3.943 0 0 0-3.958 3.997 3.937 3.937 0 0 0 3.978 3.918 3.929 3.929 0 0 0 3.927-3.965z" fill="#fff" />
</svg>
