<svg width="17" height="10" viewBox="0 0 17 10" fill="none" xmlns="http://www.w3.org/2000/svg">
<path d="M14.167 4.92124C13.2166 6.10297 13.2958 6.10298 14.4046 7.12715C15.1966 7.83619 16.1471 8.86037 16.0679 9.41185C16.0679 9.6482 15.9094 9.80576 15.355 9.80576H13.2166C12.0285 9.80576 11.7909 9.1755 10.8405 8.23011C9.96924 7.3635 9.49402 7.99376 9.49402 9.25428C9.49402 9.41185 9.41482 9.56941 9.33562 9.6482C9.25641 9.72698 9.09801 9.80576 8.9396 9.80576C7.67236 9.80576 5.85069 9.96333 4.02903 8.07254C2.20736 6.10298 0.227295 2.24263 0.227295 1.84871C0.227295 1.61236 0.464903 1.53358 0.781714 1.53358H2.84099C3.237 1.53358 3.55381 1.76993 3.63301 2.16384C4.34584 3.66071 5.9299 6.57567 6.32591 4.92124C6.56352 3.97584 6.64272 1.76993 5.61308 1.61236C5.05867 1.53358 6.0883 0.90332 7.59315 0.90332C7.98917 0.90332 8.38518 0.982103 8.7812 1.06089C9.0188 1.06089 9.25641 1.21845 9.41482 1.37602C9.57323 1.53358 9.65243 1.76993 9.57322 2.00628C9.57322 3.89706 9.33562 5.0788 9.81083 5.39393C10.2861 5.70906 11.5533 3.7395 12.1869 2.24263C12.3453 1.84871 12.4245 1.53358 12.8997 1.53358H15.5134C16.9391 1.53358 15.355 3.42436 14.167 4.92124Z" fill="white"/>
</svg>
